<?xml version="1.0" encoding="UTF-8" standalone="no"?>
<!-- Created with Inkscape (http://www.inkscape.org/) -->

<svg
   xmlns:dc="http://purl.org/dc/elements/1.1/"
   xmlns:cc="http://creativecommons.org/ns#"
   xmlns:rdf="http://www.w3.org/1999/02/22-rdf-syntax-ns#"
   xmlns:svg="http://www.w3.org/2000/svg"
   xmlns="http://www.w3.org/2000/svg"
   xmlns:xlink="http://www.w3.org/1999/xlink"
   xmlns:sodipodi="http://sodipodi.sourceforge.net/DTD/sodipodi-0.dtd"
   xmlns:inkscape="http://www.inkscape.org/namespaces/inkscape"
   sodipodi:docname="plain3_event.svg"
   inkscape:version="0.48+devel r12130"
   version="1.1"
   id="svg2"
   height="600"
   width="800">
  <sodipodi:namedview
     id="base"
     pagecolor="#ffffff"
     bordercolor="#666666"
     borderopacity="1.0"
     inkscape:pageopacity="0.0"
     inkscape:pageshadow="2"
     inkscape:zoom="0.95363496"
     inkscape:cx="736.58858"
     inkscape:cy="156.52977"
     inkscape:document-units="px"
     inkscape:current-layer="g1078"
     showgrid="true"
     inkscape:window-width="1920"
     inkscape:window-height="1059"
     inkscape:window-x="0"
     inkscape:window-y="0"
     inkscape:window-maximized="1"
     showguides="false"
     inkscape:snap-global="false">
    <inkscape:grid
       type="xygrid"
       id="grid3040"
       empspacing="5"
       visible="true"
       enabled="true"
       snapvisiblegridlinesonly="true" />
    <sodipodi:guide
       position="546.99153,-2.8415144"
       orientation="0,800"
       id="guide5522" />
    <sodipodi:guide
       position="769.29936,469.8742"
       orientation="-600,0"
       id="guide5524" />
    <sodipodi:guide
       position="123.96107,567.23732"
       orientation="0,-800"
       id="guide5526" />
    <sodipodi:guide
       position="30.534987,457.56905"
       orientation="600,0"
       id="guide5528" />
  </sodipodi:namedview>
  <defs
     id="defs4">
    <linearGradient
       id="linearGradient969">
      <stop
         style="stop-color:#278e0e;stop-opacity:1"
         offset="0"
         id="stop971" />
      <stop
         id="stop973"
         offset="0.16770333"
         style="stop-color:#292929;stop-opacity:1" />
      <stop
         style="stop-color:#474747;stop-opacity:1"
         offset="0.16770333"
         id="stop975" />
      <stop
         id="stop977"
         offset="0.85328698"
         style="stop-color:#000000;stop-opacity:1;" />
      <stop
         id="stop979"
         offset="1"
         style="stop-color:#000000;stop-opacity:1" />
    </linearGradient>
    <linearGradient
       id="linearGradient5587">
      <stop
         id="stop5589"
         offset="0"
         style="stop-color:#2b9d0f;stop-opacity:1" />
      <stop
         style="stop-color:#000000;stop-opacity:1"
         offset="0.32615688"
         id="stop5591" />
      <stop
         id="stop5593"
         offset="0.86523139"
         style="stop-color:#6a6a6a;stop-opacity:1" />
      <stop
         style="stop-color:#000000;stop-opacity:1;"
         offset="1"
         id="stop5595" />
      <stop
         style="stop-color:#000000;stop-opacity:1"
         offset="1"
         id="stop5597" />
    </linearGradient>
    <linearGradient
       id="linearGradient5510">
      <stop
         id="stop5575"
         offset="0"
         style="stop-color:#278e0e;stop-opacity:1" />
      <stop
         style="stop-color:#292929;stop-opacity:1"
         offset="0.31864655"
         id="stop5577" />
      <stop
         id="stop5579"
         offset="0.40718427"
         style="stop-color:#474747;stop-opacity:1" />
      <stop
         style="stop-color:#000000;stop-opacity:1;"
         offset="0.85328698"
         id="stop5581" />
      <stop
         style="stop-color:#434343;stop-opacity:1;"
         offset="1"
         id="stop5583" />
    </linearGradient>
    <linearGradient
       id="linearGradient5585">
      <stop
         style="stop-color:#3c9a25;stop-opacity:1"
         offset="0"
         id="stop5512" />
      <stop
         id="stop5514"
         offset="0.29139879"
         style="stop-color:#282828;stop-opacity:1;" />
      <stop
         style="stop-color:#000000;stop-opacity:1;"
         offset="0.41628388"
         id="stop5516" />
      <stop
         id="stop5518"
         offset="0.73479283"
         style="stop-color:#000000;stop-opacity:1;" />
      <stop
         id="stop5520"
         offset="1"
         style="stop-color:#434343;stop-opacity:1;" />
    </linearGradient>
    <linearGradient
       id="linearGradient3003">
      <stop
         style="stop-color:#252525;stop-opacity:1;"
         offset="0"
         id="stop3005" />
      <stop
         style="stop-color:#ffffff;stop-opacity:1;"
         offset="1"
         id="stop3007" />
    </linearGradient>
    <linearGradient
       id="linearGradient2991">
      <stop
         id="stop3042"
         offset="0"
         style="stop-color:#30ae11;stop-opacity:1;" />
      <stop
         style="stop-color:#282828;stop-opacity:1;"
         offset="0.33336484"
         id="stop3814" />
      <stop
         id="stop3793"
         offset="0.33336484"
         style="stop-color:#000000;stop-opacity:1;" />
      <stop
         style="stop-color:#000000;stop-opacity:1;"
         offset="0.73479283"
         id="stop3806" />
      <stop
         style="stop-color:#434343;stop-opacity:1;"
         offset="1"
         id="stop2995" />
    </linearGradient>
    <filter
       id="filter5289"
       inkscape:label="Tritone"
       inkscape:menu="Color"
       inkscape:menu-tooltip="Create a tritone palette with hue selectable by flood"
       x="0"
       y="0"
       height="1"
       width="1"
       color-interpolation-filters="sRGB">
      <feColorMatrix
         id="feColorMatrix5291"
         in="SourceGraphic"
         result="r"
         type="matrix"
         values="1 0 0 0 0 1 0 0 0 0 1 0 0 0 0 0 0 0 0 1 " />
      <feColorMatrix
         id="feColorMatrix5293"
         in="SourceGraphic"
         result="g"
         type="matrix"
         values="0 1 0 0 0 0 1 0 0 0 0 1 0 0 0 0 0 0 0 1 " />
      <feColorMatrix
         id="feColorMatrix5295"
         in="SourceGraphic"
         result="b"
         type="matrix"
         values="0 0 1 0 0 0 0 1 0 0 0 0 1 0 0 0 0 0 0 1 " />
      <feBlend
         id="feBlend5297"
         in2="g"
         mode="darken"
         in="r"
         result="minrg" />
      <feBlend
         id="feBlend5299"
         in2="b"
         mode="darken"
         in="minrg"
         result="p" />
      <feBlend
         id="feBlend5301"
         in2="g"
         mode="lighten"
         in="r"
         result="maxrg" />
      <feBlend
         id="feBlend5303"
         in2="b"
         mode="lighten"
         in="maxrg"
         result="q" />
      <feComponentTransfer
         id="feComponentTransfer5305"
         in="q"
         result="q2">
        <feFuncR
           id="feFuncR5307"
           type="linear"
           slope="0" />
      </feComponentTransfer>
      <feBlend
         id="feBlend5309"
         in2="q2"
         mode="lighten"
         in="p"
         result="pq" />
      <feColorMatrix
         id="feColorMatrix5311"
         in="pq"
         result="qminp"
         type="matrix"
         values="-1 1 0 0 0 -1 1 0 0 0 -1 1 0 0 0 0 0 0 0 1 " />
      <feComponentTransfer
         id="feComponentTransfer5313"
         in="qminp"
         result="coefsq">
        <feFuncR
           id="feFuncR5315"
           type="table"
           tableValues="1 1 0 0 0 1 1" />
        <feFuncG
           id="feFuncG5317"
           type="table"
           tableValues="0 1 1 1 0 0 0" />
        <feFuncB
           id="feFuncB5319"
           type="table"
           tableValues="0 0 0 1 1 1 0" />
      </feComponentTransfer>
      <feFlood
         id="feFlood5321"
         flood-color="rgb(203,0,254)"
         result="result1" />
      <feComposite
         id="feComposite5323"
         in2="result1"
         in="qminp"
         result="qminpc"
         operator="arithmetic"
         k1="1"
         k2="0"
         k3="0"
         k4="0" />
      <feComposite
         id="feComposite5325"
         in2="qminpc"
         in="p"
         result="color"
         operator="arithmetic"
         k2="1"
         k3="1"
         k1="0"
         k4="0" />
      <feComposite
         id="feComposite5327"
         in2="SourceGraphic"
         in="color"
         operator="in" />
    </filter>
    <filter
       id="filter5349"
       inkscape:label="Invert"
       x="0"
       y="0"
       width="1"
       height="1"
       inkscape:menu="Color"
       inkscape:menu-tooltip="Invert colors"
       color-interpolation-filters="sRGB">
      <feColorMatrix
         id="feColorMatrix5351"
         type="saturate"
         values="0"
         result="fbSourceGraphic" />
      <feColorMatrix
         result="fbSourceGraphicAlpha"
         in="fbSourceGraphic"
         values="0 0 0 -1 0 0 0 0 -1 0 0 0 0 -1 0 0 0 0 1 0"
         id="feColorMatrix5353" />
      <feColorMatrix
         id="feColorMatrix5355"
         type="saturate"
         values="1"
         result="fbSourceGraphic"
         in="fbSourceGraphic" />
      <feColorMatrix
         id="feColorMatrix5357"
         in="fbSourceGraphic"
         values="-1 0 0 0 1 0 -1 0 0 1 0 0 -1 0 1 0 0 0 1 0 " />
    </filter>
    <linearGradient
       inkscape:collect="always"
       xlink:href="#linearGradient5587"
       id="linearGradient3809"
       x1="325"
       y1="478.36322"
       x2="325"
       y2="449.68112"
       gradientUnits="userSpaceOnUse"
       gradientTransform="matrix(0.96969697,0,0,1.4999968,0.11393652,-227.88864)" />
    <linearGradient
       inkscape:collect="always"
       xlink:href="#linearGradient2991-2"
       id="linearGradient3809-2"
       x1="325"
       y1="472.36218"
       x2="325"
       y2="452.36218"
       gradientUnits="userSpaceOnUse"
       gradientTransform="matrix(0.96969697,0,0,1.4999968,0,-226.17959)" />
    <linearGradient
       id="linearGradient2991-2">
      <stop
         id="stop3042-5"
         offset="0"
         style="stop-color:#30ae11;stop-opacity:1;" />
      <stop
         style="stop-color:#282828;stop-opacity:1;"
         offset="0.15086384"
         id="stop3814-8" />
      <stop
         id="stop3793-5"
         offset="0.50098181"
         style="stop-color:#000000;stop-opacity:1;" />
      <stop
         style="stop-color:#000000;stop-opacity:1;"
         offset="0.73479283"
         id="stop3806-5" />
      <stop
         style="stop-color:#434343;stop-opacity:1;"
         offset="1"
         id="stop2995-5" />
    </linearGradient>
    <linearGradient
       y2="448.80096"
       x2="433.35999"
       y1="477.70642"
       x1="433.35999"
       gradientTransform="matrix(0.96969697,0,0,1.4999968,0,-1730.904)"
       gradientUnits="userSpaceOnUse"
       id="linearGradient3045"
       xlink:href="#linearGradient5510"
       inkscape:collect="always" />
    <linearGradient
       inkscape:collect="always"
       xlink:href="#linearGradient969"
       id="linearGradient943"
       x1="706.26166"
       y1="403.11456"
       x2="706.26166"
       y2="463.07883"
       gradientUnits="userSpaceOnUse"
       gradientTransform="translate(-11.805523,452.36218)" />
  </defs>
  <metadata
     id="metadata7">
    <rdf:RDF>
      <cc:Work
         rdf:about="">
        <dc:format>image/svg+xml</dc:format>
        <dc:type
           rdf:resource="http://purl.org/dc/dcmitype/StillImage" />
        <dc:title></dc:title>
      </cc:Work>
    </rdf:RDF>
  </metadata>
  <g
     inkscape:label="レイヤー 1"
     inkscape:groupmode="layer"
     id="layer1"
     transform="translate(0,-452.36218)"
     style="display:inline">
    <path
       style="fill:url(#linearGradient3809);fill-opacity:1;stroke:#000000;stroke-opacity:0"
       d="M -0.15515962,450.3841 800.11394,450.65319 800.11394,490.65313 C 800.11394,490.65313 732.68841,490.50382 700.29346,490.73617 684.39553,491.03142 685.28366,482.42915 664.40766,482.47608 510.849,482.82128 144.94805,481.87498 134.47252,482.23286 117.13006,482.59146 114.54126,490.8578 99.11344,490.70445 79.112644,490.90317 18.038172,490.71661 4.9287709e-4,490.78526 Z"
       id="rect3025"
       inkscape:connector-curvature="0"
       sodipodi:nodetypes="ccccscccc" />
    <path
       transform="scale(1,-1)"
       style="fill:url(#linearGradient3045);fill-opacity:1;stroke:none"
       d="M -0.06727404,-1052.6984 800,-1052.6312 C 800,-1041.916 800.63101,-1033.0652 800.63101,-1024.2993 784.97472,-1024.2993 366.44961,-1023.9611 170.87923,-1023.9611 140.79517,-1023.9611 151.43316,-1011.8417 121.71796,-1011.4358 86.355189,-1011.9414 45.355189,-1011.9414 0.28791527,-1011.8381 Z"
       id="rect3025-1"
       inkscape:connector-curvature="0"
       sodipodi:nodetypes="ccccccc" />
    <g
       transform="matrix(0,1.4373964,-1,0,566.58734,1185.7823)"
       style="font-size:13px;font-style:normal;font-variant:normal;font-weight:normal;font-stretch:normal;line-height:125%;letter-spacing:0px;word-spacing:0px;fill:#ffffff;fill-opacity:1;stroke:none;font-family:MigMix;-inkscape-font-specification:MigMix"
       id="text3074">
      <path
         d="M -101.51692,540.54535 -96.299149,550.58734 -106.7347,550.58734 -101.51692,540.54535"
         id="path3079"
         inkscape:connector-curvature="0"
         style="fill:#ffffff" />
    </g>
    <g
       transform="matrix(1.2693109,0,0,1.10094,22.214238,-307.17939)"
       style="font-size:6.91812611px;font-style:normal;font-variant:normal;font-weight:normal;font-stretch:normal;line-height:125%;letter-spacing:0px;word-spacing:0px;fill:#ffffff;fill-opacity:1;stroke:none;font-family:MigMix;-inkscape-font-specification:MigMix"
       id="text5538">
      <path
         d="M 7.3199575,1208.4288 8.8586772,1208.4288 8.8586772,1200.8264 7.3199575,1200.8264 7.3199575,1208.4288 Z"
         style="font-size:11.39792442px;font-weight:bold;text-align:start;line-height:125%;letter-spacing:-0.49000001px;writing-mode:lr-tb;text-anchor:start;fill:#ffffff;font-family:CartoGothic Std;-inkscape-font-specification:CartoGothic Std Bold"
         id="path119"
         inkscape:connector-curvature="0" />
      <path
         d="M 10.2675,1208.4288 11.726434,1208.4288 11.726434,1204.451 C 11.726434,1203.9608 11.658047,1203.2314 11.555466,1202.4905 11.783424,1203.0604 11.942995,1203.391 12.182351,1203.8355 L 14.667099,1208.4288 16.524961,1208.4288 16.524961,1200.8264 15.066026,1200.8264 15.066026,1204.9069 C 15.066026,1205.6591 15.066026,1205.6933 15.145812,1206.3658 15.15721,1206.4342 15.180006,1206.5938 15.191403,1206.7761 15.145812,1206.6394 15.088822,1206.514 15.077424,1206.4684 14.940649,1206.0923 14.895057,1205.9213 14.621507,1205.4312 L 12.07977,1200.8264 10.2675,1200.8264 10.2675,1208.4288 Z"
         style="font-size:11.39792442px;font-weight:bold;text-align:start;line-height:125%;letter-spacing:-0.49000001px;writing-mode:lr-tb;text-anchor:start;fill:#ffffff;font-family:CartoGothic Std;-inkscape-font-specification:CartoGothic Std Bold"
         id="path121"
         inkscape:connector-curvature="0" />
      <path
         d="M 17.858451,1208.4288 19.408568,1208.4288 19.408568,1205.1234 21.973101,1205.1234 21.973101,1203.8811 19.39717,1203.8811 19.39717,1202.0688 22.075683,1202.0688 22.075683,1200.8264 17.858451,1200.8264 17.858451,1208.4288 Z"
         style="font-size:11.39792442px;font-weight:bold;text-align:start;line-height:125%;letter-spacing:-0.49000001px;writing-mode:lr-tb;text-anchor:start;fill:#ffffff;font-family:CartoGothic Std;-inkscape-font-specification:CartoGothic Std Bold"
         id="path123"
         inkscape:connector-curvature="0" />
      <path
         d="M 22.60277,1204.6447 C 22.60277,1207.0839 24.027511,1208.5998 26.307096,1208.5998 27.49248,1208.5998 28.495497,1208.1781 29.122383,1207.4258 29.692279,1206.7533 30.034217,1205.7275 30.034217,1204.6675 30.034217,1202.1828 28.620874,1200.6554 26.307096,1200.6554 25.190099,1200.6554 24.152888,1201.0772 23.5374,1201.7724 22.944708,1202.4449 22.60277,1203.4935 22.60277,1204.6447 Z M 24.232673,1204.6333 C 24.232673,1202.9692 25.07612,1201.8294 26.307096,1201.8294 27.549469,1201.8294 28.404314,1202.9806 28.404314,1204.6675 28.404314,1205.3628 28.221947,1206.0467 27.880009,1206.571 27.515276,1207.1295 26.979573,1207.4258 26.318494,1207.4258 25.07612,1207.4258 24.232673,1206.2974 24.232673,1204.6333 Z"
         style="font-size:11.39792442px;font-weight:bold;text-align:start;line-height:125%;letter-spacing:-0.49000001px;writing-mode:lr-tb;text-anchor:start;fill:#ffffff;font-family:CartoGothic Std;-inkscape-font-specification:CartoGothic Std Bold"
         id="path125"
         inkscape:connector-curvature="0" />
      <path
         d="M 31.014549,1208.4288 32.564667,1208.4288 32.564667,1205.2716 32.9294,1205.2716 C 33.64747,1205.2716 33.886826,1205.4654 34.19457,1206.2746 L 35.026618,1208.4288 36.736307,1208.4288 35.642106,1205.7845 C 35.322964,1205.0095 35.1292,1204.7815 34.707476,1204.6219 35.6763,1204.4852 36.246196,1203.8241 36.246196,1202.8325 36.246196,1202.1714 35.984044,1201.6129 35.505331,1201.2709 35.07221,1200.9518 34.513712,1200.8264 33.510694,1200.8264 L 31.014549,1200.8264 31.014549,1208.4288 Z M 32.553269,1204.0976 32.553269,1202.0118 33.362521,1202.0118 C 34.183172,1202.0118 34.616293,1202.3537 34.616293,1203.0034 34.616293,1203.7215 34.148978,1204.0976 33.237144,1204.0976 L 32.553269,1204.0976 Z"
         style="font-size:11.39792442px;font-weight:bold;text-align:start;line-height:125%;letter-spacing:-0.49000001px;writing-mode:lr-tb;text-anchor:start;fill:#ffffff;font-family:CartoGothic Std;-inkscape-font-specification:CartoGothic Std Bold"
         id="path127"
         inkscape:connector-curvature="0" />
      <path
         d="M 37.314327,1208.4288 38.773261,1208.4288 38.773261,1203.8697 C 38.773261,1203.3796 38.716272,1202.4449 38.659282,1201.8864 L 38.704874,1201.8864 C 38.875843,1202.5475 39.012618,1203.0262 39.229178,1203.6645 L 40.870479,1208.4288 42.283822,1208.4288 44.221469,1202.6729 C 44.32405,1202.3765 44.358244,1202.2512 44.449428,1201.8864 L 44.495019,1201.8864 C 44.460826,1202.3765 44.392438,1203.0604 44.392438,1203.9381 L 44.392438,1208.4288 45.931158,1208.4288 45.931158,1200.8264 43.469206,1200.8264 42.010272,1205.1462 C 41.816507,1205.7275 41.759517,1205.9783 41.668334,1206.4 41.656936,1206.4456 41.645538,1206.5368 41.611344,1206.685 41.474569,1205.9555 41.383386,1205.568 41.121234,1204.8157 L 39.742085,1200.8264 37.314327,1200.8264 37.314327,1208.4288 Z"
         style="font-size:11.39792442px;font-weight:bold;text-align:start;line-height:125%;letter-spacing:-0.49000001px;writing-mode:lr-tb;text-anchor:start;fill:#ffffff;font-family:CartoGothic Std;-inkscape-font-specification:CartoGothic Std Bold"
         id="path129"
         inkscape:connector-curvature="0" />
      <path
         d="M 46.455752,1208.4288 48.040064,1208.4288 48.689745,1206.6963 51.835573,1206.6963 52.496652,1208.4288 54.172147,1208.4288 51.128901,1200.8264 49.419213,1200.8264 46.455752,1208.4288 Z M 49.15706,1205.454 50.068894,1202.8894 C 50.114486,1202.7527 50.137282,1202.6843 50.182873,1202.4905 L 50.239863,1202.2626 C 50.296853,1202.4905 50.319649,1202.5703 50.388036,1202.7641 L 51.368258,1205.454 49.15706,1205.454 Z"
         style="font-size:11.39792442px;font-weight:bold;text-align:start;line-height:125%;letter-spacing:-0.49000001px;writing-mode:lr-tb;text-anchor:start;fill:#ffffff;font-family:CartoGothic Std;-inkscape-font-specification:CartoGothic Std Bold"
         id="path131"
         inkscape:connector-curvature="0" />
      <path
         d="M 55.41089,1208.4288 56.949609,1208.4288 56.949609,1202.0688 59.138011,1202.0688 59.138011,1200.8264 53.245284,1200.8264 53.245284,1202.0688 55.41089,1202.0688 55.41089,1208.4288 Z"
         style="font-size:11.39792442px;font-weight:bold;text-align:start;line-height:125%;letter-spacing:-0.49000001px;writing-mode:lr-tb;text-anchor:start;fill:#ffffff;font-family:CartoGothic Std;-inkscape-font-specification:CartoGothic Std Bold"
         id="path133"
         inkscape:connector-curvature="0" />
      <path
         d="M 59.743995,1208.4288 61.282714,1208.4288 61.282714,1200.8264 59.743995,1200.8264 59.743995,1208.4288 Z"
         style="font-size:11.39792442px;font-weight:bold;text-align:start;line-height:125%;letter-spacing:-0.49000001px;writing-mode:lr-tb;text-anchor:start;fill:#ffffff;font-family:CartoGothic Std;-inkscape-font-specification:CartoGothic Std Bold"
         id="path135"
         inkscape:connector-curvature="0" />
      <path
         d="M 62.338202,1204.6447 C 62.338202,1207.0839 63.762942,1208.5998 66.042527,1208.5998 67.227911,1208.5998 68.230929,1208.1781 68.857815,1207.4258 69.427711,1206.7533 69.769649,1205.7275 69.769649,1204.6675 69.769649,1202.1828 68.356306,1200.6554 66.042527,1200.6554 64.925531,1200.6554 63.88832,1201.0772 63.272832,1201.7724 62.68014,1202.4449 62.338202,1203.4935 62.338202,1204.6447 Z M 63.968105,1204.6333 C 63.968105,1202.9692 64.811552,1201.8294 66.042527,1201.8294 67.284901,1201.8294 68.139745,1202.9806 68.139745,1204.6675 68.139745,1205.3628 67.957379,1206.0467 67.615441,1206.571 67.250707,1207.1295 66.715005,1207.4258 66.053925,1207.4258 64.811552,1207.4258 63.968105,1206.2974 63.968105,1204.6333 Z"
         style="font-size:11.39792442px;font-weight:bold;text-align:start;line-height:125%;letter-spacing:-0.49000001px;writing-mode:lr-tb;text-anchor:start;fill:#ffffff;font-family:CartoGothic Std;-inkscape-font-specification:CartoGothic Std Bold"
         id="path137"
         inkscape:connector-curvature="0" />
      <path
         d="M 70.749979,1208.4288 72.208913,1208.4288 72.208913,1204.451 C 72.208913,1203.9608 72.140526,1203.2314 72.037944,1202.4905 72.265903,1203.0604 72.425474,1203.391 72.66483,1203.8355 L 75.149578,1208.4288 77.007439,1208.4288 77.007439,1200.8264 75.548505,1200.8264 75.548505,1204.9069 C 75.548505,1205.6591 75.548505,1205.6933 75.62829,1206.3658 75.639688,1206.4342 75.662484,1206.5938 75.673882,1206.7761 75.62829,1206.6394 75.571301,1206.514 75.559903,1206.4684 75.423128,1206.0923 75.377536,1205.9213 75.103986,1205.4312 L 72.562249,1200.8264 70.749979,1200.8264 70.749979,1208.4288 Z"
         style="font-size:11.39792442px;font-weight:bold;text-align:start;line-height:125%;letter-spacing:-0.49000001px;writing-mode:lr-tb;text-anchor:start;fill:#ffffff;font-family:CartoGothic Std;-inkscape-font-specification:CartoGothic Std Bold"
         id="path139"
         inkscape:connector-curvature="0" />
    </g>
    <g
       transform="matrix(1.4108699,0,0,1.0632131,26.587687,-161.15847)"
       style="font-size:6.50335789px;font-style:normal;font-variant:normal;font-weight:normal;font-stretch:normal;line-height:125%;letter-spacing:0px;word-spacing:0px;fill:#f9f9f9;fill-opacity:1;stroke:none;display:inline;font-family:MigMix;-inkscape-font-specification:MigMix"
       id="text5538-9">
      <path
         d="M 4.0315916,612.18921 5.4030572,612.18921 5.4030572,607.90338 C 5.4030572,607.44265 5.3494843,606.56406 5.2959114,606.03904 L 5.3387697,606.03904 C 5.4994883,606.66049 5.6280632,607.1105 5.8316402,607.71052 L 7.3745389,612.18921 8.7031462,612.18921 10.524624,606.77835 C 10.621055,606.49977 10.653199,606.38191 10.738915,606.03904 L 10.781774,606.03904 C 10.74963,606.49977 10.685343,607.14264 10.685343,607.96767 L 10.685343,612.18921 12.13181,612.18921 12.13181,605.04259 9.817462,605.04259 8.4459964,609.10341 C 8.2638486,609.64985 8.2102758,609.88558 8.1245592,610.28201 8.1138446,610.32487 8.10313,610.41059 8.0709863,610.54988 7.9424114,609.86415 7.8566948,609.49985 7.6102596,608.79269 L 6.313796,605.04259 4.0315916,605.04259 4.0315916,612.18921 Z"
         style="font-size:10.71457481px;font-weight:bold;text-align:start;letter-spacing:-0.46062261px;writing-mode:lr-tb;text-anchor:start;fill:#f9f9f9;font-family:CartoGothic Std;-inkscape-font-specification:CartoGothic Std Bold"
         id="path142"
         inkscape:connector-curvature="0" />
      <path
         d="M 12.624952,612.18921 14.114278,612.18921 14.725009,610.56059 17.682232,610.56059 18.303677,612.18921 19.878719,612.18921 17.017928,605.04259 15.410742,605.04259 12.624952,612.18921 Z M 15.164306,609.3927 16.021472,606.98193 C 16.064331,606.85335 16.08576,606.78906 16.128618,606.60692 L 16.182191,606.39262 C 16.235764,606.60692 16.257193,606.68192 16.321481,606.86407 L 17.242934,609.3927 15.164306,609.3927 Z"
         style="font-size:10.71457481px;font-weight:bold;text-align:start;letter-spacing:-0.46062261px;writing-mode:lr-tb;text-anchor:start;fill:#f9f9f9;font-family:CartoGothic Std;-inkscape-font-specification:CartoGothic Std Bold"
         id="path144"
         inkscape:connector-curvature="0" />
      <path
         d="M 25.225563,610.74274 C 24.67912,610.94632 24.18625,611.04275 23.661235,611.04275 22.246912,611.04275 21.261171,610.02486 21.261171,608.54625 21.261171,607.06764 22.17191,606.13547 23.618377,606.13547 24.18625,606.13547 24.636262,606.25333 25.129132,606.5212 L 25.246993,605.29974 C 24.496972,605.0533 24.111248,604.98901 23.479088,604.98901 22.364772,604.98901 21.421889,605.32117 20.736157,605.96404 20.061138,606.60692 19.728987,607.46408 19.728987,608.59983 19.728987,610.89275 21.16474,612.24278 23.607663,612.24278 24.229108,612.24278 24.593403,612.18921 25.279136,612.00706 L 25.225563,610.74274 Z"
         style="font-size:10.71457481px;font-weight:bold;text-align:start;letter-spacing:-0.46062261px;writing-mode:lr-tb;text-anchor:start;fill:#f9f9f9;font-family:CartoGothic Std;-inkscape-font-specification:CartoGothic Std Bold"
         id="path146"
         inkscape:connector-curvature="0" />
      <path
         d="M 25.920441,612.18921 27.366908,612.18921 27.366908,609.11413 30.206271,609.11413 30.206271,612.18921 31.652738,612.18921 31.652738,605.04259 30.206271,605.04259 30.206271,607.94624 27.366908,607.94624 27.366908,605.04259 25.920441,605.04259 25.920441,612.18921 Z"
         style="font-size:10.71457481px;font-weight:bold;text-align:start;letter-spacing:-0.46062261px;writing-mode:lr-tb;text-anchor:start;fill:#f9f9f9;font-family:CartoGothic Std;-inkscape-font-specification:CartoGothic Std Bold"
         id="path148"
         inkscape:connector-curvature="0" />
      <path
         d="M 32.984798,612.18921 34.431266,612.18921 34.431266,605.04259 32.984798,605.04259 32.984798,612.18921 Z"
         style="font-size:10.71457481px;font-weight:bold;text-align:start;letter-spacing:-0.46062261px;writing-mode:lr-tb;text-anchor:start;fill:#f9f9f9;font-family:CartoGothic Std;-inkscape-font-specification:CartoGothic Std Bold"
         id="path150"
         inkscape:connector-curvature="0" />
      <path
         d="M 35.755625,612.18921 37.127091,612.18921 37.127091,608.44982 C 37.127091,607.9891 37.062803,607.30336 36.966372,606.60692 37.180663,607.14264 37.330667,607.45337 37.555674,607.87124 L 39.891451,612.18921 41.637927,612.18921 41.637927,605.04259 40.266461,605.04259 40.266461,608.87841 C 40.266461,609.58557 40.266461,609.61771 40.341463,610.24987 40.352178,610.31416 40.373607,610.46416 40.384321,610.6356 40.341463,610.50702 40.28789,610.38916 40.277176,610.3463 40.148601,609.99272 40.105742,609.832 39.848593,609.37128 L 37.459242,605.04259 35.755625,605.04259 35.755625,612.18921 Z"
         style="font-size:10.71457481px;font-weight:bold;text-align:start;letter-spacing:-0.46062261px;writing-mode:lr-tb;text-anchor:start;fill:#f9f9f9;font-family:CartoGothic Std;-inkscape-font-specification:CartoGothic Std Bold"
         id="path152"
         inkscape:connector-curvature="0" />
      <path
         d="M 42.891466,612.18921 47.166582,612.18921 47.166582,611.02132 44.337934,611.02132 44.337934,609.11413 46.888003,609.11413 46.888003,607.94624 44.337934,607.94624 44.337934,606.21048 47.123723,606.21048 47.123723,605.04259 42.891466,605.04259 42.891466,612.18921 Z"
         style="font-size:10.71457481px;font-weight:bold;text-align:start;letter-spacing:-0.46062261px;writing-mode:lr-tb;text-anchor:start;fill:#f9f9f9;font-family:CartoGothic Std;-inkscape-font-specification:CartoGothic Std Bold"
         id="path154"
         inkscape:connector-curvature="0" />
    </g>
    <g
       transform="matrix(1.4245643,0,0,1.0555796,-134.29359,-156.60912)"
       style="font-size:6.50335789px;font-style:normal;font-variant:normal;font-weight:normal;font-stretch:normal;line-height:125%;letter-spacing:0px;word-spacing:0px;fill:#ffffff;fill-opacity:1;stroke:none;display:inline;font-family:MigMix;-inkscape-font-specification:MigMix"
       id="text5538-9-1">
      <path
         d="M 594.59532,610.4538 C 594.04888,610.65738 593.55601,610.75381 593.03099,610.75381 591.61667,610.75381 590.63093,609.73592 590.63093,608.25731 590.63093,606.7787 591.54167,605.84653 592.98814,605.84653 593.55601,605.84653 594.00602,605.96439 594.49889,606.23226 L 594.61675,605.0108 C 593.86673,604.76436 593.48101,604.70007 592.84885,604.70007 591.73453,604.70007 590.79165,605.03223 590.10591,605.6751 589.4309,606.31798 589.09874,607.17514 589.09874,608.31089 589.09874,610.60381 590.5345,611.95384 592.97742,611.95384 593.59887,611.95384 593.96316,611.90027 594.64889,611.71812 L 594.59532,610.4538 Z"
         style="font-size:10.71457481px;font-weight:bold;text-align:start;line-height:125%;letter-spacing:-0.46062261px;writing-mode:lr-tb;text-anchor:start;fill:#ffffff;font-family:CartoGothic Std;-inkscape-font-specification:CartoGothic Std Bold"
         id="path157"
         inkscape:connector-curvature="0" />
      <path
         d="M 594.87434,608.34303 C 594.87434,610.63595 596.21366,612.06099 598.35658,612.06099 599.47089,612.06099 600.41377,611.66455 601.00308,610.95739 601.5388,610.32523 601.86024,609.36091 601.86024,608.36446 601.86024,606.02868 600.53163,604.59293 598.35658,604.59293 597.30655,604.59293 596.33152,604.98937 595.75293,605.64296 595.19578,606.27512 594.87434,607.26086 594.87434,608.34303 Z M 596.40652,608.33232 C 596.40652,606.76799 597.1994,605.69653 598.35658,605.69653 599.52446,605.69653 600.32806,606.7787 600.32806,608.36446 600.32806,609.01805 600.15662,609.66092 599.83519,610.15379 599.49232,610.67881 598.98874,610.95739 598.36729,610.95739 597.1994,610.95739 596.40652,609.89664 596.40652,608.33232 Z"
         style="font-size:10.71457481px;font-weight:bold;text-align:start;line-height:125%;letter-spacing:-0.46062261px;writing-mode:lr-tb;text-anchor:start;fill:#ffffff;font-family:CartoGothic Std;-inkscape-font-specification:CartoGothic Std Bold"
         id="path159"
         inkscape:connector-curvature="0" />
      <path
         d="M 608.60032,604.75365 607.19671,604.75365 607.19671,608.88947 C 607.19671,609.62878 607.15385,609.8645 606.98242,610.19665 606.73598,610.65738 606.27525,610.91453 605.7181,610.91453 605.23594,610.91453 604.81807,610.73238 604.56092,610.41094 604.29306,610.06808 604.20734,609.72521 604.20734,608.94305 L 604.20734,604.75365 602.76087,604.75365 602.76087,609.07162 C 602.76087,610.08951 602.94302,610.73238 603.3716,611.21454 603.86447,611.78241 604.61449,612.06099 605.63238,612.06099 607.66815,612.06099 608.60032,611.12882 608.60032,609.09305 L 608.60032,604.75365 Z"
         style="font-size:10.71457481px;font-weight:bold;text-align:start;line-height:125%;letter-spacing:-0.46062261px;writing-mode:lr-tb;text-anchor:start;fill:#ffffff;font-family:CartoGothic Std;-inkscape-font-specification:CartoGothic Std Bold"
         id="path161"
         inkscape:connector-curvature="0" />
      <path
         d="M 609.85486,611.90027 611.22633,611.90027 611.22633,608.16088 C 611.22633,607.70016 611.16204,607.01442 611.06561,606.31798 611.2799,606.8537 611.4299,607.16443 611.65491,607.58229 L 613.99069,611.90027 615.73716,611.90027 615.73716,604.75365 614.3657,604.75365 614.3657,608.58946 C 614.3657,609.29663 614.3657,609.32877 614.4407,609.96093 614.45141,610.02522 614.47284,610.17522 614.48356,610.34666 614.4407,610.21808 614.38713,610.10022 614.37641,610.05736 614.24784,609.70378 614.20498,609.54306 613.94783,609.08234 L 611.55848,604.75365 609.85486,604.75365 609.85486,611.90027 Z"
         style="font-size:10.71457481px;font-weight:bold;text-align:start;line-height:125%;letter-spacing:-0.46062261px;writing-mode:lr-tb;text-anchor:start;fill:#ffffff;font-family:CartoGothic Std;-inkscape-font-specification:CartoGothic Std Bold"
         id="path163"
         inkscape:connector-curvature="0" />
      <path
         d="M 618.26574,611.90027 619.71221,611.90027 619.71221,605.92154 621.76941,605.92154 621.76941,604.75365 616.22997,604.75365 616.22997,605.92154 618.26574,605.92154 618.26574,611.90027 Z"
         style="font-size:10.71457481px;font-weight:bold;text-align:start;line-height:125%;letter-spacing:-0.46062261px;writing-mode:lr-tb;text-anchor:start;fill:#ffffff;font-family:CartoGothic Std;-inkscape-font-specification:CartoGothic Std Bold"
         id="path165"
         inkscape:connector-curvature="0" />
      <path
         d="M 622.26405,611.90027 626.53917,611.90027 626.53917,610.73238 623.71052,610.73238 623.71052,608.82519 626.26059,608.82519 626.26059,607.6573 623.71052,607.6573 623.71052,605.92154 626.49631,605.92154 626.49631,604.75365 622.26405,604.75365 622.26405,611.90027 Z"
         style="font-size:10.71457481px;font-weight:bold;text-align:start;line-height:125%;letter-spacing:-0.46062261px;writing-mode:lr-tb;text-anchor:start;fill:#ffffff;font-family:CartoGothic Std;-inkscape-font-specification:CartoGothic Std Bold"
         id="path167"
         inkscape:connector-curvature="0" />
      <path
         d="M 627.55833,611.90027 629.01551,611.90027 629.01551,608.93233 629.35838,608.93233 C 630.0334,608.93233 630.2584,609.11448 630.5477,609.87521 L 631.32986,611.90027 632.93705,611.90027 631.90845,609.41449 C 631.60844,608.6859 631.42629,608.4716 631.02985,608.3216 631.94059,608.19303 632.47632,607.57158 632.47632,606.63941 632.47632,606.01797 632.22988,605.49295 631.77987,605.17152 631.37272,604.87151 630.8477,604.75365 629.90482,604.75365 L 627.55833,604.75365 627.55833,611.90027 Z M 629.0048,607.82873 629.0048,605.86796 629.76553,605.86796 C 630.53698,605.86796 630.94414,606.1894 630.94414,606.80013 630.94414,607.47515 630.50484,607.82873 629.64767,607.82873 L 629.0048,607.82873 Z"
         style="font-size:10.71457481px;font-weight:bold;text-align:start;line-height:125%;letter-spacing:-0.46062261px;writing-mode:lr-tb;text-anchor:start;fill:#ffffff;font-family:CartoGothic Std;-inkscape-font-specification:CartoGothic Std Bold"
         id="path169"
         inkscape:connector-curvature="0" />
    </g>
    <g
       id="g1078"
       transform="translate(11.916469,48.639971)">
      <path
         sodipodi:nodetypes="sssssssssssss"
         inkscape:connector-curvature="0"
         id="rect919"
         d="M 615.12073,862.28174 651.2101,862.28174 C 656.42825,862.28174 656.45093,852.28174 661.66908,852.28174 L 727.82657,852.28174 C 733.15253,852.28174 733.66402,862.28174 737.97044,862.28174 L 777.59435,862.28174 C 781.49679,862.28174 784.63846,865.42341 784.63846,869.32585 L 784.63846,965.34597 C 784.63846,969.2484 781.49679,972.3901 777.59435,972.3901 L 615.12073,972.3901 C 611.2183,972.3901 608.07662,969.2484 608.07662,965.34597 L 608.07662,869.32585 C 608.07662,865.42341 611.2183,862.28174 615.12073,862.28174 Z"
         style="fill:url(#linearGradient943);fill-opacity:1;stroke:none" />
      <g
         id="text981"
         style="font-size:10.3720808px;font-style:normal;font-variant:normal;font-weight:500;font-stretch:normal;text-align:start;line-height:125%;letter-spacing:0px;word-spacing:0px;writing-mode:lr-tb;text-anchor:start;fill:#ffffff;fill-opacity:1;stroke:none;font-family:'M+ 1c';-inkscape-font-specification:'M+ 1c Medium'"
         transform="matrix(1.2691324,0,0,0.8078896,-8.063253,-9.6682313)">
        <path
           inkscape:connector-curvature="0"
           id="path990"
           style="letter-spacing:-0.62px;font-family:'M+ 1c';-inkscape-font-specification:'M+ 1c Medium'"
           d="M 540.8845,1071.1957 540.8845,1073.3531 544.09985,1073.3531 544.09985,1074.2451 540.8845,1074.2451 540.8845,1076.9004 544.30729,1076.9004 544.30729,1077.8339 539.74357,1077.8339 539.74357,1070.2622 544.30729,1070.2622 544.30729,1071.1957 540.8845,1071.1957 Z" />
        <path
           inkscape:connector-curvature="0"
           id="path992"
           style="letter-spacing:-0.62px;font-family:'M+ 1c';-inkscape-font-specification:'M+ 1c Medium'"
           d="M 545.83415,1070.2622 547.83596,1076.6929 547.8567,1076.6929 549.85851,1070.2622 551.04093,1070.2622 548.44791,1077.8339 547.20326,1077.8339 544.61024,1070.2622 545.83415,1070.2622 Z" />
        <path
           inkscape:connector-curvature="0"
           id="path994"
           style="letter-spacing:-0.62px;font-family:'M+ 1c';-inkscape-font-specification:'M+ 1c Medium'"
           d="M 552.69063,1071.1957 552.69063,1073.3531 555.90598,1073.3531 555.90598,1074.2451 552.69063,1074.2451 552.69063,1076.9004 556.11342,1076.9004 556.11342,1077.8339 551.54971,1077.8339 551.54971,1070.2622 556.11342,1070.2622 556.11342,1071.1957 552.69063,1071.1957 Z" />
        <path
           inkscape:connector-curvature="0"
           id="path996"
           style="letter-spacing:-0.62px;font-family:'M+ 1c';-inkscape-font-specification:'M+ 1c Medium'"
           d="M 557.08813,1077.8339 557.08813,1070.2622 558.20831,1070.2622 561.4444,1075.915 561.46515,1075.915 561.46515,1070.2622 562.58533,1070.2622 562.58533,1077.8339 561.46515,1077.8339 558.22906,1072.1811 558.20831,1072.1811 558.20831,1077.8339 557.08813,1077.8339 Z" />
        <path
           inkscape:connector-curvature="0"
           id="path998"
           style="letter-spacing:-0.62px;font-family:'M+ 1c';-inkscape-font-specification:'M+ 1c Medium'"
           d="M 563.40041,1070.2622 568.79389,1070.2622 568.79389,1071.2165 566.66761,1071.2165 566.66761,1077.8339 565.52668,1077.8339 565.52668,1071.2165 563.40041,1071.2165 563.40041,1070.2622 Z" />
      </g>
      <text
         transform="scale(1.0049779,0.99504676)"
         sodipodi:linespacing="125%"
         id="text985"
         y="913.51324"
         x="688.89044"
         style="font-size:19.18918037px;font-style:normal;font-variant:normal;font-weight:500;font-stretch:normal;text-align:start;line-height:125%;letter-spacing:0px;word-spacing:0px;writing-mode:lr-tb;text-anchor:start;fill:#f9f9f9;fill-opacity:1;stroke:none;font-family:'M+ 1c';-inkscape-font-specification:'M+ 1c Medium'"
         xml:space="preserve"><tspan
           style="font-style:normal;font-variant:normal;font-weight:bold;font-stretch:normal;text-align:center;letter-spacing:-1.69000006px;text-anchor:middle;font-family:'M+ 1c';-inkscape-font-specification:'M+ 1c Medium'"
           y="913.51324"
           x="688.04547"
           id="tspan987"
           sodipodi:role="line">対戦相手</tspan></text>
      <g
         id="text1022"
         style="font-size:10.99911594px;font-style:normal;font-variant:normal;font-weight:bold;font-stretch:normal;text-align:start;line-height:125%;letter-spacing:0px;word-spacing:0px;writing-mode:lr-tb;text-anchor:start;fill:#ffffff;fill-opacity:1;stroke:none;font-family:CartoGothic Std;-inkscape-font-specification:CartoGothic Std"
         transform="matrix(1.1819131,0,0,0.84608592,0,-2)">
        <path
           inkscape:connector-curvature="0"
           id="path1052"
           style="font-family:'M+ 1c';-inkscape-font-specification:'M+ 1c Bold'"
           d="M 528.58106,1039.0603 529.83496,1038.5104 Q 530.6379,1040.1382 531.23185,1041.7771 L 529.96695,1042.2391 Q 529.373,1040.5562 528.58106,1039.0603 Z M 523.98343,1039.0933 524.96236,1038.1364 Q 525.86428,1039.0603 526.50223,1039.8083 526.71122,1038.8953 526.74421,1037.6084 L 523.95044,1037.6084 523.95044,1036.3655 525.6663,1036.3655 525.6663,1034.8587 527.14018,1034.8587 527.14018,1036.3655 528.91104,1036.3655 528.91104,1036.7065 531.80381,1036.7065 531.80381,1034.9356 533.26669,1034.9356 533.26669,1036.7065 534.11362,1036.7065 534.11362,1037.9604 533.26669,1037.9604 533.26669,1043.053 Q 533.26669,1043.504 533.24469,1043.7679 533.23369,1044.0209 533.1567,1044.2409 533.0797,1044.4719 532.98071,1044.5709 532.88172,1044.6699 532.65074,1044.7359 532.41976,1044.8129 532.15578,1044.8239 531.8918,1044.8459 531.42984,1044.8459 530.95687,1044.8459 529.72497,1044.7909 L 529.65898,1043.548 Q 530.73689,1043.603 531.17686,1043.603 531.62782,1043.603 531.71581,1043.537 531.80381,1043.46 531.80381,1043.086 L 531.80381,1037.9604 528.77905,1037.9604 528.77905,1037.6084 528.1741,1037.6084 Q 528.1081,1039.7093 527.58015,1041.1501 528.22909,1042.0081 529.05403,1043.229 L 527.97611,1044.0759 Q 527.48115,1043.328 526.8982,1042.525 526.12826,1043.7349 524.62138,1044.7909 L 523.82945,1043.57 Q 525.32533,1042.492 525.96328,1041.3041 525.09435,1040.2152 523.98343,1039.0933 Z" />
        <path
           inkscape:connector-curvature="0"
           id="path1054"
           style="font-family:'M+ 1c';-inkscape-font-specification:'M+ 1c Bold'"
           d="M 540.95507,1042.866 Q 541.54902,1042.459 542.02198,1041.9861 541.72501,1040.6552 541.59302,1038.8733 L 540.73509,1038.9503 540.73509,1041.2601 538.73325,1041.2601 538.73325,1041.9201 540.95507,1041.9201 540.95507,1042.866 Z M 536.50043,1039.4673 536.50043,1040.2482 537.36936,1040.2482 537.36936,1039.4673 536.50043,1039.4673 Z M 537.36936,1037.7624 536.50043,1037.7624 536.50043,1038.5104 537.36936,1038.5104 537.36936,1037.7624 Z M 539.56918,1038.5104 539.56918,1037.7624 538.70025,1037.7624 538.70025,1038.5104 539.56918,1038.5104 Z M 539.56918,1039.4673 538.70025,1039.4673 538.70025,1040.2482 539.56918,1040.2482 539.56918,1039.4673 Z M 543.94683,1043.251 Q 544.10082,1043.251 544.25481,1041.4911 L 545.33272,1041.9751 Q 545.25572,1043.427 544.90375,1044.1309 544.56278,1044.8349 544.07882,1044.8349 543.0339,1044.8349 542.41795,1043.317 541.38404,1044.1969 540.00915,1044.8239 L 539.3052,1043.7789 Q 540.09714,1043.427 540.6031,1043.097 L 538.73325,1043.097 538.73325,1044.9008 537.32536,1044.9008 537.32536,1043.097 534.87256,1043.097 534.87256,1041.9201 537.32536,1041.9201 537.32536,1041.2601 536.50043,1041.2601 535.29053,1041.2601 535.29053,1036.6955 535.75249,1036.6955 Q 535.41152,1035.8156 535.13654,1035.2436 L 536.25845,1034.8917 Q 536.59942,1035.5736 537.00639,1036.6955 L 537.64434,1036.6955 Q 537.36936,1035.9366 537.00639,1035.1336 L 538.1283,1034.7817 Q 538.57926,1035.7386 538.90923,1036.6955 L 538.96423,1036.6955 Q 539.43719,1035.7276 539.74517,1034.8587 L 540.97707,1035.1666 Q 540.68009,1036.0136 540.35012,1036.6955 L 540.73509,1036.6955 540.73509,1037.6964 541.51603,1037.6304 Q 541.45003,1036.3985 541.45003,1034.8807 L 542.82492,1034.8807 Q 542.84692,1036.4645 542.90191,1037.5094 L 545.06874,1037.3115 545.14573,1038.5654 542.97891,1038.7523 Q 543.0339,1039.4013 543.17689,1040.5122 543.57286,1039.8523 543.91383,1038.9943 L 545.04674,1039.4673 Q 544.41979,1041.0732 543.49587,1042.2061 543.75984,1043.251 543.94683,1043.251 Z M 543.95783,1037.2235 Q 543.51786,1036.2225 543.0779,1035.4306 L 544.16681,1035.0016 Q 544.61778,1035.8156 545.04674,1036.8055 L 543.95783,1037.2235 Z" />
        <path
           inkscape:connector-curvature="0"
           id="path1056"
           style="font-family:'M+ 1c';-inkscape-font-specification:'M+ 1c Bold'"
           d="M 551.7782,1041.6561 551.7782,1043.13 554.38499,1043.13 554.38499,1041.6561 551.7782,1041.6561 Z M 551.7782,1039.0383 551.7782,1040.5012 554.38499,1040.5012 554.38499,1039.0383 551.7782,1039.0383 Z M 551.7782,1037.8834 554.38499,1037.8834 554.38499,1036.4205 551.7782,1036.4205 551.7782,1037.8834 Z M 546.11366,1036.8385 547.58754,1036.8385 547.58754,1034.9356 548.97343,1034.9356 548.97343,1036.8385 550.06234,1036.8385 550.06234,1038.0814 549.17141,1038.0814 Q 550.09534,1039.6653 550.39231,1040.1932 L 550.39231,1035.2216 555.81488,1035.2216 555.81488,1044.7909 554.38499,1044.7909 554.38499,1044.2849 551.7782,1044.2849 551.7782,1044.7909 550.39231,1044.7909 550.39231,1040.9742 549.76536,1041.5131 Q 549.45739,1040.8752 548.97343,1039.9402 L 548.97343,1044.9008 547.58754,1044.9008 547.58754,1040.6332 Q 547.10358,1042.0851 546.38863,1043.053 L 545.68469,1041.6891 Q 546.90559,1039.9512 547.35656,1038.0814 L 546.11366,1038.0814 546.11366,1036.8385 Z" />
        <path
           inkscape:connector-curvature="0"
           id="path1058"
           style="font-family:'M+ 1c';-inkscape-font-specification:'M+ 1c Bold'"
           d="M 556.96978,1040.6552 561.47942,1040.6552 561.47942,1039.3683 557.51974,1039.3683 557.51974,1038.1584 561.47942,1038.1584 561.47942,1036.9705 Q 559.75256,1037.0915 557.9927,1037.0915 L 557.92671,1035.8486 Q 560.20352,1035.8486 562.38135,1035.6176 564.57017,1035.3866 566.05505,1035.0016 L 566.36303,1036.2555 Q 564.94414,1036.6185 562.9863,1036.8385 L 562.9863,1038.1584 566.53901,1038.1584 566.53901,1039.3683 562.9863,1039.3683 562.9863,1040.6552 567.08897,1040.6552 567.08897,1041.8981 562.9863,1041.8981 562.9863,1043.031 Q 562.9863,1043.471 562.9643,1043.7349 562.9533,1043.9989 562.87631,1044.2189 562.81031,1044.4499 562.71132,1044.5489 562.62333,1044.6589 562.41435,1044.7249 562.20536,1044.8019 561.96338,1044.8129 561.7214,1044.8349 561.31443,1044.8349 560.72048,1044.8349 559.34559,1044.7799 L 559.2796,1043.548 Q 560.5225,1043.603 560.98446,1043.603 561.33643,1043.603 561.40243,1043.526 561.47942,1043.449 561.47942,1043.086 L 561.47942,1041.8981 556.96978,1041.8981 556.96978,1040.6552 Z" />
      </g>
      <g
         id="text1022-5"
         style="font-size:10.99911594px;font-style:normal;font-variant:normal;font-weight:bold;font-stretch:normal;text-align:start;line-height:125%;letter-spacing:0px;word-spacing:0px;writing-mode:lr-tb;text-anchor:start;fill:#ffffff;fill-opacity:1;stroke:none;display:inline;font-family:CartoGothic Std;-inkscape-font-specification:CartoGothic Std"
         transform="matrix(1.1819131,0,0,0.8460859,0,2)">
        <path
           inkscape:connector-curvature="0"
           id="path1061"
           style="font-family:'M+ 1c';-inkscape-font-specification:'M+ 1c Bold'"
           d="M 641.9321,1084.7219 641.9431,1084.7109 Q 641.55813,1083.93 641.32715,1082.9291 638.78636,1082.9951 636.30056,1082.9951 L 636.30056,1081.7522 Q 638.68736,1081.7522 641.10717,1081.6862 641.01918,1081.0152 640.98618,1080.3663 L 642.38307,1080.2783 Q 642.41607,1081.0702 642.49306,1081.6422 644.25292,1081.5762 645.16584,1081.5322 L 645.20984,1082.7751 Q 644.38491,1082.8191 642.71304,1082.8851 643.05401,1084.26 643.98894,1085.7229 L 642.65805,1086.3938 Q 641.47014,1085.6019 640.10625,1085.6019 639.27032,1085.6019 638.80836,1085.9428 638.34639,1086.2728 638.34639,1086.8448 638.34639,1087.6037 639.02834,1088.0217 639.71028,1088.4286 641.06317,1088.4286 642.27308,1088.4286 643.73596,1088.1317 L 643.96694,1089.3746 Q 642.57005,1089.6715 641.06317,1089.6715 638.95134,1089.6715 637.91743,1088.8796 636.88351,1088.0877 636.88351,1086.7788 636.88351,1085.6789 637.71944,1085.0189 638.55538,1084.359 640.04026,1084.359 641.00818,1084.359 641.9321,1084.7219 Z" />
        <path
           inkscape:connector-curvature="0"
           id="path1063"
           style="font-family:'M+ 1c';-inkscape-font-specification:'M+ 1c Bold'"
           d="M 649.61785,1080.7733 Q 648.86991,1082.5881 648.07797,1084.6449 L 648.09997,1084.6559 Q 648.66093,1084.249 649.21088,1084.249 649.92583,1084.249 650.34379,1084.7879 650.76176,1085.3269 650.93774,1086.6248 651.06973,1087.5817 651.23472,1087.9227 651.41071,1088.2527 651.67468,1088.2527 652.40063,1088.2527 653.08257,1085.7009 L 654.34747,1086.0528 Q 653.83051,1088.0327 653.18156,1088.8136 652.54361,1089.5945 651.63069,1089.5945 650.79476,1089.5945 650.32179,1089.0446 649.84883,1088.4836 649.62885,1087.0867 649.48586,1086.2398 649.30987,1085.9098 649.13389,1085.5799 648.88091,1085.5799 648.31995,1085.5799 647.67101,1086.5038 647.02206,1087.4167 646.06514,1089.7595 L 644.77824,1089.2866 Q 646.26312,1085.4699 648.29796,1080.3773 L 649.61785,1080.7733 Z" />
      </g>
      <g
         id="text1065"
         style="font-size:12.99999905px;font-style:normal;font-variant:normal;font-weight:bold;font-stretch:normal;text-align:start;line-height:125%;letter-spacing:0px;word-spacing:0px;writing-mode:lr-tb;text-anchor:start;fill:#ffffff;fill-opacity:1;stroke:none;font-family:CartoGothic Std;-inkscape-font-specification:CartoGothic Std"
         transform="matrix(1,0,0,0.69102183,89.349039,607.81092)">
        <path
           inkscape:connector-curvature="0"
           id="path1070"
           style="fill:#ffffff;font-family:'M+ 1c';-inkscape-font-specification:'M+ 1c Bold'"
           d="M 533.85435,474.95182 Q 534.11435,473.98982 534.19235,472.98882 L 533.06135,472.98882 Q 532.86635,473.62582 532.67135,474.13282 533.36035,474.57482 533.85435,474.95182 Z M 537.53335,472.18282 Q 537.50735,471.89682 537.48135,471.27282 L 535.42735,471.46782 535.32335,470.40182 533.58135,470.40182 Q 533.51635,470.90882 533.37335,471.68882 L 535.72635,471.68882 535.72635,472.36482 537.53335,472.18282 Z M 537.78035,474.49682 Q 537.72835,474.09382 537.66335,473.53482 L 535.67435,473.74282 Q 535.60935,474.34082 535.50535,474.75682 L 537.78035,474.49682 Z M 539.91235,476.53782 Q 540.49735,476.13482 541.10835,475.52382 L 539.70435,475.70582 Q 539.82135,476.26482 539.91235,476.53782 Z M 537.41635,468.56882 539.09335,468.56882 Q 539.09335,469.33582 539.10635,469.69982 L 540.04235,469.62182 Q 539.91235,469.41382 539.52235,468.84182 L 540.79635,468.39982 Q 541.27735,469.10182 541.52435,469.49182 L 542.16135,469.42682 542.30435,470.81782 539.14535,471.11682 Q 539.17135,471.71482 539.19735,472.01382 L 541.99235,471.72782 542.12235,473.05382 539.32735,473.35282 Q 539.37935,473.80782 539.44435,474.30182 L 542.42135,473.96382 542.56435,475.34182 541.30335,475.51082 542.31735,476.23882 Q 541.42035,477.17482 540.41935,477.86382 540.86135,478.68282 541.21235,478.68282 541.27735,478.68282 541.34235,478.55282 541.42035,478.40982 541.51135,478.04582 541.61535,477.66882 541.70635,477.12282 L 542.87635,477.69482 Q 542.65535,479.08582 542.26535,479.68382 541.88835,480.28182 541.30335,480.28182 539.91235,480.28182 539.01535,478.70882 537.07835,479.72282 534.49135,480.24282 L 533.93235,478.86482 Q 536.58435,478.29282 538.44335,477.39582 538.18335,476.62882 538.04035,475.92682 L 535.41435,476.25182 535.33635,475.40682 Q 534.85535,477.01882 533.89335,478.29282 532.93135,479.56682 531.63135,480.30782 L 530.72135,479.13782 Q 532.46335,478.00682 533.32135,476.32982 532.87935,475.99182 532.08635,475.44582 531.74835,476.09582 531.43635,476.49882 L 530.44835,475.32882 Q 531.74835,473.24882 532.06035,470.40182 L 530.78635,470.40182 530.78635,468.97182 536.24635,468.97182 536.24635,469.95982 537.42935,469.84282 Q 537.41635,469.42682 537.41635,468.56882 Z" />
        <path
           inkscape:connector-curvature="0"
           id="path1072"
           style="fill:#ffffff;font-family:'M+ 1c';-inkscape-font-specification:'M+ 1c Bold'"
           d="M 545.46335,469.21882 547.15335,469.21882 547.15335,471.76682 547.16635,471.76682 Q 548.58335,469.47882 550.87135,469.47882 552.48335,469.47882 553.40635,470.60982 554.34235,471.72782 554.34235,473.76882 554.34235,476.94082 552.53535,478.40982 550.72835,479.87882 546.80235,479.87882 L 546.71135,478.31882 Q 549.90935,478.31882 551.20935,477.27882 552.52235,476.23882 552.52235,473.76882 552.52235,472.45582 552.05435,471.79282 551.58635,471.11682 550.70235,471.11682 549.36335,471.11682 548.25835,472.48182 547.16635,473.84682 547.10135,475.80982 L 545.46335,475.79682 545.46335,469.21882 Z" />
        <path
           inkscape:connector-curvature="0"
           id="path1074"
           style="fill:#ffffff;font-family:'M+ 1c';-inkscape-font-specification:'M+ 1c Bold'"
           d="M 561.07635,473.52182 561.07635,474.54882 565.78235,474.54882 565.78235,473.52182 561.07635,473.52182 Z M 558.52835,474.74382 558.52835,477.79882 559.58135,477.79882 559.58135,474.74382 558.52835,474.74382 Z M 558.52835,473.31382 559.58135,473.31382 559.58135,470.51882 558.52835,470.51882 558.52835,473.31382 Z M 568.66835,473.52182 567.49835,473.52182 567.49835,474.54882 568.66835,474.54882 568.66835,475.95282 567.49835,475.95282 567.49835,478.12382 Q 567.49835,478.66982 567.47235,478.98182 567.45935,479.29382 567.36835,479.56682 567.29035,479.83982 567.17335,479.95682 567.05635,480.07382 566.78335,480.16482 566.52335,480.25582 566.22435,480.26882 565.92535,480.28182 565.39235,480.28182 565.01535,480.28182 563.78035,480.21682 L 563.70235,478.81282 Q 564.78135,478.87782 565.09335,478.87782 565.61335,478.87782 565.69135,478.79982 565.78235,478.72182 565.78235,478.22782 L 565.78235,475.95282 562.58435,475.95282 Q 563.50735,476.81082 564.39135,477.85082 L 563.23435,478.86482 Q 562.29835,477.78582 561.33635,476.87582 L 562.36335,475.95282 561.07635,475.95282 561.07635,479.22882 558.52835,479.22882 558.52835,479.95682 556.96835,479.95682 556.96835,469.03682 561.07635,469.03682 561.07635,472.11782 564.09235,472.11782 564.09235,470.92182 561.58335,470.92182 561.58335,469.55682 564.09235,469.55682 564.09235,468.30882 565.80835,468.30882 565.80835,469.55682 568.22635,469.55682 568.22635,470.92182 565.80835,470.92182 565.80835,472.11782 568.66835,472.11782 568.66835,473.52182 Z" />
        <path
           inkscape:connector-curvature="0"
           id="path1076"
           style="fill:#ffffff;font-family:'M+ 1c';-inkscape-font-specification:'M+ 1c Bold'"
           d="M 574.32335,477.47382 574.32335,478.18882 577.00135,478.18882 577.00135,477.47382 574.32335,477.47382 Z M 574.32335,476.38182 577.00135,476.38182 577.00135,475.73182 574.32335,475.73182 574.32335,476.38182 Z M 571.60635,471.96182 571.60635,472.71582 573.81635,472.71582 573.81635,471.96182 571.60635,471.96182 Z M 571.60635,470.84382 573.81635,470.84382 573.81635,470.08982 571.60635,470.08982 571.60635,470.84382 Z M 579.71835,471.96182 577.37835,471.96182 577.37835,472.71582 579.71835,472.71582 579.71835,471.96182 Z M 579.71835,470.84382 579.71835,470.08982 577.37835,470.08982 577.37835,470.84382 579.71835,470.84382 Z M 571.60635,480.28182 569.94235,480.28182 569.94235,468.77682 575.27235,468.77682 575.27235,473.87282 571.60635,473.87282 571.60635,480.28182 Z M 579.34135,480.24282 Q 578.73035,480.24282 577.61235,480.17782 L 577.56035,479.31982 574.32335,479.31982 574.32335,479.89182 572.82835,479.89182 572.82835,474.54882 578.49635,474.54882 578.49635,478.79982 Q 578.75635,478.81282 579.06835,478.81282 579.53635,478.81282 579.62735,478.73482 579.71835,478.64382 579.71835,478.20182 L 579.71835,473.87282 575.92235,473.87282 575.92235,468.77682 581.38235,468.77682 581.38235,478.12382 Q 581.38235,478.65682 581.35635,478.96882 581.34335,479.26782 581.25235,479.52782 581.17435,479.80082 581.05735,479.91782 580.94035,480.03482 580.68035,480.11282 580.43335,480.20382 580.13435,480.21682 579.84835,480.24282 579.34135,480.24282 Z" />
      </g>
    </g>
  </g>
</svg>
